<svg xmlns:x="http://ns.adobe.com/Extensibility/1.0/" xmlns:i="http://ns.adobe.com/AdobeIllustrator/10.0/" xmlns:graph="http://ns.adobe.com/Graphs/1.0/" xmlns="http://www.w3.org/2000/svg" xmlns:xlink="http://www.w3.org/1999/xlink" version="1.1" x="0px" y="0px" viewBox="0 0 100 125" enable-background="new 0 0 100 100" xml:space="preserve"><metadata><sfw xmlns="http://ns.adobe.com/SaveForWeb/1.0/"><slices/><sliceSourceBounds y="17.25" x="9.731" width="80.537" height="64.705" bottomLeftOrigin="true"/><optimizationSettings><targetSettings targetSettingsID="0" fileFormat="GIFFormat"><GIFFormat transparency="true" lossy="0" matteColor="#FFFFFF" interlaced="false" noMatteColor="false" webShiftPercent="0" includeCaption="false" reductionAlgorithm="selective" ditherAlgorithm="diffusion" ditherPercent="100" numColors="256" rolloverMasterPalette="false" autoReduce="false"><colorTable isExact="false"/><lockedColors/><colorShiftEntries/></GIFFormat></targetSettings></optimizationSettings></sfw></metadata><path d="M88.722,42.13L52.913,18.854c-1.66-1.079-4.166-1.08-5.827,0L11.279,42.13c-0.983,0.639-1.547,1.594-1.547,2.62  s0.564,1.981,1.547,2.62L26,56.939V68.75c0,5.908,12.074,9,24,9c11.927,0,24-3.092,24-9V56.939l7-4.551v19.217  c-0.376,0.295-0.705,0.699-0.96,1.21l-2.764,5.527c-0.53,1.062-0.527,2.17,0.011,3.039c0.537,0.869,1.526,1.368,2.713,1.368h5  c1.187,0,2.176-0.499,2.713-1.368c0.538-0.869,0.541-1.978,0.011-3.039l-2.764-5.527c-0.255-0.511-0.584-0.915-0.96-1.21V50.439  l4.722-3.069c0.983-0.639,1.547-1.594,1.547-2.62S89.705,42.769,88.722,42.13z M68.425,64.416c-0.211,0.511-0.793,0.752-1.306,0.544  C62.939,63.237,56.7,62.25,50,62.25c-6.697,0-12.937,0.988-17.119,2.711c-0.125,0.051-0.253,0.075-0.38,0.075  c-0.393,0-0.766-0.233-0.925-0.619c-0.21-0.511,0.033-1.095,0.544-1.306C36.534,61.293,43.051,60.25,50,60.25  c6.951,0,13.469,1.043,17.881,2.86C68.392,63.321,68.635,63.905,68.425,64.416z"/><text x="0" y="115" fill="#000000" font-size="5px" font-weight="bold" font-family="'Helvetica Neue', Helvetica, Arial-Unicode, Arial, Sans-serif">Created by Ralf Schmitzer</text><text x="0" y="120" fill="#000000" font-size="5px" font-weight="bold" font-family="'Helvetica Neue', Helvetica, Arial-Unicode, Arial, Sans-serif">from the Noun Project</text></svg>